# xmcd CD database file
#
# Track frame offsets:
#	150
#	16549
#	35547
#	57436
#	75028
#	94273
#	119166
#	145120
#	162855
#	176047
#	195605
#	215121
#	248226
#
# Disc length: 3546 seconds
#
# Revision: 1
# Processed by: cddbd v1.5.1PL0 Copyright (c) Steve Scherf et al.
# Submitted via: jetAudio 5
#
DISCID=ae0dd80d
DTITLE=Mishouris Blues Band - I got money
DYEAR=1900
DGENRE=
TTITLE0=I Got Money
TTITLE1=Material Love Boogie
TTITLE2=Aces, Kings and Queens
TTITLE3=It's Nothing But A Shame
TTITLE4=Empty Bottle Blues
TTITLE5=Big River (You're Calling Me Back Home)
TTITLE6=Burn With A Fever Of Love
TTITLE7=Girl From San Francisco
TTITLE8=On The Bottom
TTITLE9=Love Train Girl
TTITLE10=Pablo
TTITLE11=Last Day Tomorrow
TTITLE12=On The Bottom (dub remix)
EXTD=
EXTT0=
EXTT1=
EXTT2=
EXTT3=
EXTT4=
EXTT5=
EXTT6=
EXTT7=
EXTT8=
EXTT9=
EXTT10=
EXTT11=
EXTT12=
PLAYORDER=
